<?xml version="1.0" encoding="UTF-8" standalone="no"?>
<!-- Generator: Adobe Illustrator 22.0.1, SVG Export Plug-In . SVG Version: 6.00 Build 0)  -->

<svg
   version="1.1"
   id="Layer_1"
   x="0px"
   y="0px"
   viewBox="0 0 68 68"
   style="enable-background:new 0 0 68 68;"
   xml:space="preserve"
   sodipodi:docname="cloud.svg"
   inkscape:version="1.2.2 (b0a8486541, 2022-12-01)"
   xmlns:inkscape="http://www.inkscape.org/namespaces/inkscape"
   xmlns:sodipodi="http://sodipodi.sourceforge.net/DTD/sodipodi-0.dtd"
   xmlns="http://www.w3.org/2000/svg"
   xmlns:svg="http://www.w3.org/2000/svg"><defs
   id="defs841" /><sodipodi:namedview
   id="namedview839"
   pagecolor="#505050"
   bordercolor="#eeeeee"
   borderopacity="1"
   inkscape:showpageshadow="0"
   inkscape:pageopacity="0"
   inkscape:pagecheckerboard="0"
   inkscape:deskcolor="#505050"
   showgrid="false"
   inkscape:zoom="5.3396961"
   inkscape:cx="31.087912"
   inkscape:cy="41.481762"
   inkscape:window-width="1119"
   inkscape:window-height="1339"
   inkscape:window-x="1088"
   inkscape:window-y="56"
   inkscape:window-maximized="0"
   inkscape:current-layer="Layer_1" />
<g
   id="g836"
   style="fill:#3bee2f;fill-opacity:1">
	<path
   d="M56.0650024,16.2805023v-0.0289917c0-7.09198-5.7700195-12.8609619-12.8610229-12.8609619   c-3.2750244,0-6.3710327,1.2229614-8.7650146,3.4530029c-2.4539795-2.9299927-6.0249634-4.6019897-9.8629761-4.6019897   c-7.092041,0-12.8610229,5.7689819-12.8610229,12.8609619c0,0.4230347,0.0189819,0.8339844,0.0579834,1.223999   c-5.6159668,1.5-9.5099487,6.5570068-9.5099487,12.4109802c0,7.0910034,5.7699585,12.8610229,12.8609619,12.8610229h37.7529907   c7.0910034,0,12.8600464-5.7700195,12.8600464-12.8610229C65.7369995,22.8075104,61.776001,17.7285309,56.0650024,16.2805023"
   id="path826"
   style="fill:#ffffff;fill-opacity:1" />
	<path
   d="M18.0665283,51.6194305c0,0.7900085-0.3000488,1.5300293-0.8600464,2.0900269l-4.8699951,4.8699951   c-0.6400146-0.4440002-1.4119873-0.7090149-2.2479858-0.7090149c-2.1729736,0-3.940979,1.7690125-3.940979,3.9410095   c0,2.1759949,1.7680054,3.946991,3.940979,3.946991c2.1760254,0,3.9459839-1.7709961,3.9459839-3.946991   c0-1.0679932-0.4309692-2.0350037-1.1239624-2.7460022l4.8259888-4.8259888   c0.7000122-0.7000122,1.0800171-1.6300049,1.0800171-2.6200256v-9.269989h-0.75V51.6194305z"
   id="path828"
   style="fill:#3bee2f;fill-opacity:1" />
	<path
   d="M57.9122314,57.8708344c-0.835022,0-1.6070557,0.2640076-2.2460327,0.7080078l-4.8699951-4.8699951   c-0.5599976-0.5599976-0.8699951-1.2990112-0.8699951-2.0889893v-9.2700195h-0.75v9.2700195   c0,0.9889832,0.3900146,1.9190063,1.0899658,2.6199951l4.8260498,4.8249817   c-0.6940308,0.710022-1.1260376,1.678009-1.1260376,2.7470093c0,2.1759949,1.7700195,3.9460144,3.9460449,3.9460144   c2.1729736,0,3.940979-1.7700195,3.940979-3.9460144C61.8532104,59.6388397,60.0852051,57.8708344,57.9122314,57.8708344"
   id="path830"
   style="fill:#3bee2f;fill-opacity:1" />
	<path
   d="M26.2965088,57.4460297V42.3490448h-0.75v15.0960083c-1.9980469,0.1889954-3.5710449,1.8569946-3.5710449,3.9029846   c0,2.1759949,1.7680054,3.9470215,3.94104,3.9470215c2.1749878,0,3.9459839-1.7710266,3.9459839-3.9470215   C29.8624878,59.3050385,28.2924805,57.6400299,26.2965088,57.4460297"
   id="path832"
   style="fill:#3bee2f;fill-opacity:1" />
	<path
   d="M42.456604,57.4456329V42.3496552h-0.75v15.0959778c-1.9960327,0.1910095-3.5680542,1.8580017-3.5680542,3.9030151   c0,2.1759949,1.7680054,3.9460144,3.94104,3.9460144c2.1759644,0,3.9459839-1.7700195,3.9459839-3.9460144   C46.0255737,59.3046417,44.4535522,57.6386566,42.456604,57.4456329"
   id="path834"
   style="fill:#3bee2f;fill-opacity:1" />
</g>
</svg>
