<?xml version="1.0" encoding="utf-8"?>
<!DOCTYPE svg PUBLIC "-//W3C//DTD SVG 1.0//EN" "http://www.w3.org/TR/2001/REC-SVG-20010904/DTD/svg10.dtd">
<svg version="1.0" xmlns="http://www.w3.org/2000/svg" width="60px" height="77px" viewBox="0 0 60 77" preserveAspectRatio="xMidYMid meet">
 <g fill="#ffffff">
  <path d="M30.22 75.83 c-2.64 -0.52 -3.99 -0.97 -5.05 -1.66 -0.38 -0.25 -0.74 -0.46 -0.79 -0.46 -0.27 0 -1.80 -1.21 -2.92 -2.31 -1.35 -1.32 -2.13 -2.34 -3.43 -4.49 -0.87 -1.46 -1.35 -2.54 -1.75 -3.96 -0.29 -1.07 -0.26 -1.26 0.22 -1.18 0.19 0.03 1.30 0.10 2.46 0.13 1.98 0.07 2.22 0.05 3.59 -0.21 3.11 -0.59 5.71 -1.85 8.21 -3.99 1.30 -1.11 2.23 -2.22 3.25 -3.85 1.15 -1.84 1.84 -3.34 2.31 -5.03 0.64 -2.30 0.74 -3.08 0.79 -6.10 0.04 -2.62 0.16 -4.57 0.28 -4.69 0.03 -0.03 0.22 -0.03 0.41 0.01 0.23 0.05 0.60 0.33 1.07 0.81 1.23 1.23 3.06 3.40 3.75 4.42 0.36 0.54 0.97 1.37 1.35 1.84 0.38 0.48 0.88 1.19 1.11 1.58 0.23 0.39 0.66 1.17 0.98 1.70 1.57 2.72 3.43 7.22 3.85 9.32 0.60 2.92 0.54 3.95 -0.33 6.69 -0.69 2.16 -1.37 3.20 -3.65 5.50 -2.23 2.28 -3.22 3.05 -4.93 3.88 -1.49 0.72 -3.63 1.57 -3.95 1.57 -0.10 0 -0.39 0.08 -0.65 0.16 -1.31 0.46 -4.63 0.63 -6.17 0.32z"/>
  <path d="M8.33 59.56 c-1.42 -0.14 -2.60 -0.69 -3.84 -1.76 -0.97 -0.85 -1.66 -1.81 -2.10 -2.95 -0.41 -1.08 -0.37 -1.21 0.58 -1.74 0.83 -0.47 1.36 -0.99 1.50 -1.50 0.16 -0.57 0.13 -0.82 -0.13 -1.12 -0.24 -0.27 -0.29 -0.28 -1.67 -0.29 -1.56 -0.02 -1.91 -0.12 -2.17 -0.62 -0.20 -0.38 -0.09 -0.99 0.42 -2.44 0.94 -2.62 3.77 -7.45 5.72 -9.72 1.38 -1.61 3.44 -3.53 4.90 -4.57 2.19 -1.56 5.47 -3.16 7.62 -3.71 0.63 -0.15 1.32 -0.35 1.52 -0.44 0.21 -0.08 0.89 -0.27 1.52 -0.44 1.03 -0.27 1.34 -0.29 3.18 -0.30 l2.04 -0.01 0.40 -0.98 c0.42 -1.03 1.62 -3.32 2.67 -5.09 0.69 -1.15 3.06 -4.34 4.20 -5.64 2.47 -2.80 3.65 -3.92 6.81 -6.51 0.95 -0.77 3.42 -2.40 4.93 -3.25 2.92 -1.62 7.26 -3.17 9.15 -3.25 0.48 -0.02 1.10 -0.08 1.37 -0.12 1.11 -0.16 2.24 0.81 2.45 2.11 0.13 0.83 -0.52 4.95 -1.05 6.54 -0.11 0.33 -0.30 0.97 -0.44 1.42 -1.67 5.60 -5.29 11.14 -9.96 15.25 -2.10 1.85 -5.27 4.13 -6.97 5.01 -3.50 1.83 -4.01 2.12 -4.81 2.81 -2.04 1.74 -1.98 1.63 -1.99 4.89 0 2.73 -0.07 3.38 -0.57 5.53 -0.50 2.19 -1.31 3.87 -2.82 5.88 -1.03 1.39 -1.69 1.99 -3.43 3.16 -2.74 1.85 -4.43 2.46 -7.18 2.61 -1.84 0.11 -1.71 0.11 -3.56 0.01 l-1.48 -0.08 -0.75 0.32 c-1.32 0.58 -2.46 0.90 -3.52 1 -1.15 0.11 -1.32 0.11 -2.56 0z m10.38 -13.88 c2.06 -0.49 3.33 -1.86 3.94 -4.24 0.12 -0.48 0.22 -0.95 0.22 -1.03 0 -0.10 0.25 -0.42 0.54 -0.72 0.60 -0.59 0.68 -0.87 0.30 -1.03 -0.40 -0.16 -2 -0.33 -3.18 -0.33 -0.93 0 -1.25 0.05 -2.05 0.32 -1.15 0.39 -1.97 0.90 -2.60 1.63 -0.60 0.70 -1.23 1.72 -1.51 2.48 -0.24 0.64 -0.49 2.04 -0.40 2.25 0.07 0.15 1.32 0.59 2.09 0.72 0.75 0.14 1.94 0.11 2.65 -0.05z m15.65 -13.96 c1.58 -0.62 4.61 -2.13 5.61 -2.81 1.60 -1.08 2.94 -2.21 4.68 -3.96 1.85 -1.85 2.40 -2.49 4.17 -4.90 2.01 -2.72 3.85 -5.96 4.52 -7.91 0.47 -1.39 0.88 -3.01 0.82 -3.17 -0.10 -0.27 -1.52 0.13 -3.25 0.93 -5.43 2.49 -12.36 9.09 -15.51 14.79 -1.03 1.88 -1.74 3.65 -2.23 5.61 -0.22 0.86 -0.39 1.67 -0.39 1.77 0 0.24 0.23 0.19 1.58 -0.35z"/>
  <path d="M20.54 25.38 c-0.11 -0.17 0.37 -1.98 0.94 -3.50 0.30 -0.81 0.60 -1.62 0.65 -1.82 0.21 -0.75 1.88 -4.05 2.89 -5.70 1.83 -2.98 3.64 -5.14 6.46 -7.69 2.60 -2.34 6.19 -4.48 9.39 -5.55 2.15 -0.73 3.62 -0.79 4.34 -0.19 0.46 0.39 0.57 0.71 0.41 1.26 -0.25 0.99 -0.98 1.67 -3.33 3.14 -1.32 0.82 -4.41 3.19 -5.80 4.44 -2.34 2.11 -4.82 4.73 -6.21 6.54 -1.87 2.47 -2.29 3.07 -2.89 4.19 -0.28 0.54 -0.78 1.47 -1.10 2.07 -0.32 0.60 -0.65 1.38 -0.74 1.74 -0.10 0.35 -0.21 0.68 -0.25 0.72 -0.05 0.04 -0.77 0.10 -1.61 0.14 -0.84 0.03 -1.74 0.11 -2.01 0.17 -0.63 0.13 -1.06 0.13 -1.13 0.01z"/>
 </g>
</svg>